<mxfile host="app.diagrams.net" modified="2022-05-22T10:01:47.291Z" agent="5.0 (Windows NT 10.0; Win64; x64) AppleWebKit/537.36 (KHTML, like Gecko) Chrome/101.0.4951.67 Safari/537.36" etag="rud1vAfpUon4SwuqOTSK" version="18.1.1" type="github">
  <diagram id="C5RBs43oDa-KdzZeNtuy" name="Page-1">
    <mxGraphModel dx="1422" dy="1162" grid="1" gridSize="10" guides="1" tooltips="1" connect="1" arrows="1" fold="1" page="0" pageScale="1" pageWidth="827" pageHeight="1169" math="0" shadow="0">
      <root>
        <mxCell id="WIyWlLk6GJQsqaUBKTNV-0" />
        <mxCell id="WIyWlLk6GJQsqaUBKTNV-1" parent="WIyWlLk6GJQsqaUBKTNV-0" />
        <mxCell id="U--6YjjS2VKW8kHglQKW-33" style="edgeStyle=orthogonalEdgeStyle;rounded=0;orthogonalLoop=1;jettySize=auto;html=1;entryX=0;entryY=0.5;entryDx=0;entryDy=0;exitX=1;exitY=0.5;exitDx=0;exitDy=0;" parent="WIyWlLk6GJQsqaUBKTNV-1" source="U--6YjjS2VKW8kHglQKW-7" target="U--6YjjS2VKW8kHglQKW-32" edge="1">
          <mxGeometry relative="1" as="geometry" />
        </mxCell>
        <mxCell id="U--6YjjS2VKW8kHglQKW-1" value="mainScene" style="swimlane;treeMoving=1;" parent="WIyWlLk6GJQsqaUBKTNV-1" vertex="1" collapsed="1">
          <mxGeometry width="130" height="23" as="geometry">
            <mxRectangle width="150" height="80" as="alternateBounds" />
          </mxGeometry>
        </mxCell>
        <mxCell id="U--6YjjS2VKW8kHglQKW-2" value="World" style="text;html=1;align=center;verticalAlign=middle;resizable=0;points=[];autosize=1;strokeColor=none;fillColor=none;" parent="U--6YjjS2VKW8kHglQKW-1" vertex="1">
          <mxGeometry x="45" y="30" width="50" height="20" as="geometry" />
        </mxCell>
        <mxCell id="U--6YjjS2VKW8kHglQKW-3" value="WeatherDayNightSystem" style="text;html=1;align=center;verticalAlign=middle;resizable=0;points=[];autosize=1;strokeColor=none;fillColor=none;" parent="U--6YjjS2VKW8kHglQKW-1" vertex="1">
          <mxGeometry y="50" width="150" height="20" as="geometry" />
        </mxCell>
        <mxCell id="U--6YjjS2VKW8kHglQKW-6" style="edgeStyle=orthogonalEdgeStyle;rounded=0;orthogonalLoop=1;jettySize=auto;html=1;entryX=0;entryY=0.5;entryDx=0;entryDy=0;" parent="WIyWlLk6GJQsqaUBKTNV-1" source="U--6YjjS2VKW8kHglQKW-2" target="U--6YjjS2VKW8kHglQKW-7" edge="1">
          <mxGeometry relative="1" as="geometry">
            <mxPoint x="200" y="40" as="targetPoint" />
          </mxGeometry>
        </mxCell>
        <mxCell id="U--6YjjS2VKW8kHglQKW-8" style="edgeStyle=orthogonalEdgeStyle;rounded=0;orthogonalLoop=1;jettySize=auto;html=1;entryX=0;entryY=0.5;entryDx=0;entryDy=0;" parent="WIyWlLk6GJQsqaUBKTNV-1" source="U--6YjjS2VKW8kHglQKW-2" target="U--6YjjS2VKW8kHglQKW-10" edge="1">
          <mxGeometry relative="1" as="geometry">
            <mxPoint x="220" y="80" as="targetPoint" />
          </mxGeometry>
        </mxCell>
        <mxCell id="U--6YjjS2VKW8kHglQKW-14" style="edgeStyle=orthogonalEdgeStyle;rounded=0;orthogonalLoop=1;jettySize=auto;html=1;entryX=0;entryY=0.5;entryDx=0;entryDy=0;" parent="WIyWlLk6GJQsqaUBKTNV-1" source="U--6YjjS2VKW8kHglQKW-2" target="U--6YjjS2VKW8kHglQKW-11" edge="1">
          <mxGeometry relative="1" as="geometry" />
        </mxCell>
        <mxCell id="U--6YjjS2VKW8kHglQKW-15" value="Components" style="swimlane;" parent="WIyWlLk6GJQsqaUBKTNV-1" vertex="1" collapsed="1">
          <mxGeometry x="220" width="110" height="23" as="geometry">
            <mxRectangle x="220" width="120" height="80" as="alternateBounds" />
          </mxGeometry>
        </mxCell>
        <mxCell id="U--6YjjS2VKW8kHglQKW-7" value="TerrainCreater" style="whiteSpace=wrap;html=1;fillColor=#dae8fc;strokeColor=#6c8ebf;" parent="U--6YjjS2VKW8kHglQKW-15" vertex="1">
          <mxGeometry x="10" y="25" width="100" height="15" as="geometry" />
        </mxCell>
        <mxCell id="U--6YjjS2VKW8kHglQKW-10" value="NavMeshSystem" style="whiteSpace=wrap;html=1;fillColor=#dae8fc;strokeColor=#6c8ebf;" parent="U--6YjjS2VKW8kHglQKW-15" vertex="1">
          <mxGeometry x="10" y="55" width="100" height="15" as="geometry" />
        </mxCell>
        <mxCell id="U--6YjjS2VKW8kHglQKW-11" value="WaterCreater" style="whiteSpace=wrap;html=1;fillColor=#dae8fc;strokeColor=#6c8ebf;" parent="U--6YjjS2VKW8kHglQKW-15" vertex="1">
          <mxGeometry x="10" y="40" width="100" height="15" as="geometry" />
        </mxCell>
        <mxCell id="U--6YjjS2VKW8kHglQKW-16" value="Services" style="swimlane;" parent="WIyWlLk6GJQsqaUBKTNV-1" vertex="1" collapsed="1">
          <mxGeometry x="450" width="110" height="23" as="geometry">
            <mxRectangle x="450" width="120" height="80" as="alternateBounds" />
          </mxGeometry>
        </mxCell>
        <mxCell id="U--6YjjS2VKW8kHglQKW-25" value="WorldService" style="whiteSpace=wrap;html=1;fillColor=#dae8fc;strokeColor=#6c8ebf;" parent="U--6YjjS2VKW8kHglQKW-16" vertex="1">
          <mxGeometry x="10" y="25" width="100" height="15" as="geometry" />
        </mxCell>
        <mxCell id="U--6YjjS2VKW8kHglQKW-34" style="edgeStyle=orthogonalEdgeStyle;rounded=0;orthogonalLoop=1;jettySize=auto;html=1;exitX=0;exitY=0.5;exitDx=0;exitDy=0;entryX=1;entryY=0.5;entryDx=0;entryDy=0;" parent="WIyWlLk6GJQsqaUBKTNV-1" source="U--6YjjS2VKW8kHglQKW-32" target="U--6YjjS2VKW8kHglQKW-7" edge="1">
          <mxGeometry relative="1" as="geometry" />
        </mxCell>
        <mxCell id="U--6YjjS2VKW8kHglQKW-32" value="EventBridge" style="rounded=0;whiteSpace=wrap;html=1;" parent="WIyWlLk6GJQsqaUBKTNV-1" vertex="1">
          <mxGeometry x="330" y="-100" width="120" height="60" as="geometry" />
        </mxCell>
        <mxCell id="U--6YjjS2VKW8kHglQKW-36" style="edgeStyle=orthogonalEdgeStyle;rounded=0;orthogonalLoop=1;jettySize=auto;html=1;entryX=1;entryY=0.5;entryDx=0;entryDy=0;exitX=0;exitY=0.5;exitDx=0;exitDy=0;" parent="WIyWlLk6GJQsqaUBKTNV-1" source="U--6YjjS2VKW8kHglQKW-25" target="U--6YjjS2VKW8kHglQKW-32" edge="1">
          <mxGeometry relative="1" as="geometry" />
        </mxCell>
        <mxCell id="U--6YjjS2VKW8kHglQKW-37" style="edgeStyle=orthogonalEdgeStyle;rounded=0;orthogonalLoop=1;jettySize=auto;html=1;entryX=1;entryY=0.5;entryDx=0;entryDy=0;" parent="WIyWlLk6GJQsqaUBKTNV-1" source="U--6YjjS2VKW8kHglQKW-25" target="U--6YjjS2VKW8kHglQKW-32" edge="1">
          <mxGeometry relative="1" as="geometry" />
        </mxCell>
      </root>
    </mxGraphModel>
  </diagram>
</mxfile>
